<svg id="Layer_1" data-name="Layer 1" xmlns="http://www.w3.org/2000/svg" viewBox="0 0 50 48.63">
  <defs>
    <style>
      .cls-1 {
        fill: #3e7ea9;
      }

      .cls-2 {
        fill: #cddee9;
      }

      .cls-3 {
        fill: #fff;
      }
    </style>
  </defs>
  <title>CALENDAR</title>
  <g>
    <path class="cls-1" d="M50,11.88V40.93c0,4.63-3.12,8.39-7,8.39H22.77V11.88Z" transform="translate(0 -0.68)"/>
    <path class="cls-1" d="M29.29,16.47V49.32H7.49a7.45,7.45,0,0,1-4.87-1.78l-.78-.77A7.18,7.18,0,0,1,0,42V16.47Z" transform="translate(0 -0.68)"/>
    <path class="cls-1" d="M20.84,11A1.76,1.76,0,1,1,22.6,9.28,1.75,1.75,0,0,1,20.84,11Zm-8.33,0a1.76,1.76,0,1,1,1.76-1.76A1.76,1.76,0,0,1,12.51,11ZM6.39,4.75A6.39,6.39,0,0,0,0,11.15v9.6H25v-16Z" transform="translate(0 -0.68)"/>
    <path class="cls-1" d="M37.48,11a1.76,1.76,0,1,1,1.76-1.76A1.75,1.75,0,0,1,37.48,11Zm-8.32,0a1.76,1.76,0,1,1,1.76-1.76A1.75,1.75,0,0,1,29.16,11ZM48.68,7.26A6.36,6.36,0,0,0,47.47,6l0,0A6.38,6.38,0,0,0,43.6,4.75H25v16H50v-9.6a6.36,6.36,0,0,0-1.32-3.89Z" transform="translate(0 -0.68)"/>
    <path class="cls-2" d="M12.51.68V8.42a1,1,0,0,1-1-1V1.71a1,1,0,0,1,1-1Z" transform="translate(0 -0.68)"/>
    <path class="cls-2" d="M13.55,1.71V7.39a1,1,0,0,1-1,1h0V.68h0a1,1,0,0,1,1,1Z" transform="translate(0 -0.68)"/>
    <path class="cls-2" d="M20.84.68V8.42a1,1,0,0,1-1-1V1.71a1,1,0,0,1,1-1Z" transform="translate(0 -0.68)"/>
    <path class="cls-2" d="M21.88,1.71V7.39a1,1,0,0,1-1,1h0V.68h0a1,1,0,0,1,1,1Z" transform="translate(0 -0.68)"/>
    <path class="cls-2" d="M29.16.68V8.42a1,1,0,0,1-1-1V1.71a1,1,0,0,1,1-1Z" transform="translate(0 -0.68)"/>
    <path class="cls-2" d="M30.21,1.71V7.39a1,1,0,0,1-1,1h0V.68h0a1,1,0,0,1,1,1Z" transform="translate(0 -0.68)"/>
    <path class="cls-2" d="M37.48.68V8.42a1,1,0,0,1-1-1V1.71a1,1,0,0,1,1-1Z" transform="translate(0 -0.68)"/>
    <path class="cls-2" d="M38.53,1.71V7.39a1,1,0,0,1-1,1h0V.68h0a1,1,0,0,1,1,1Z" transform="translate(0 -0.68)"/>
    <polygon class="cls-3" points="15.5 24 9.54 24 9.54 18.03 15.5 18.03 15.5 24 15.5 24"/>
    <polygon class="cls-3" points="23.82 24 17.86 24 17.86 18.03 23.82 18.03 23.82 24 23.82 24"/>
    <polygon class="cls-3" points="32.14 24 26.18 24 26.18 18.03 32.14 18.03 32.14 24 32.14 24"/>
    <polygon class="cls-3" points="40.47 24 34.51 24 34.51 18.03 40.47 18.03 40.47 24 40.47 24"/>
    <polygon class="cls-3" points="15.5 31.86 9.54 31.86 9.54 25.9 15.5 25.9 15.5 31.86 15.5 31.86"/>
    <polygon class="cls-3" points="23.82 31.86 17.86 31.86 17.86 25.9 23.82 25.9 23.82 31.86 23.82 31.86"/>
    <polygon class="cls-3" points="32.14 31.86 26.18 31.86 26.18 25.9 32.14 25.9 32.14 31.86 32.14 31.86"/>
    <polygon class="cls-3" points="40.47 31.86 34.51 31.86 34.51 25.9 40.47 25.9 40.47 31.86 40.47 31.86"/>
    <polygon class="cls-3" points="15.5 39.73 9.54 39.73 9.54 33.77 15.5 33.77 15.5 39.73 15.5 39.73"/>
    <polygon class="cls-3" points="23.82 39.73 17.86 39.73 17.86 33.77 23.82 33.77 23.82 39.73 23.82 39.73"/>
    <polygon class="cls-3" points="32.14 39.73 26.18 39.73 26.18 33.77 32.14 33.77 32.14 39.73 32.14 39.73"/>
    <polygon class="cls-3" points="40.47 39.73 34.51 39.73 34.51 33.77 40.47 33.77 40.47 39.73 40.47 39.73"/>
  </g>
</svg>
