<svg id="Layer_1" data-name="Layer 1" xmlns="http://www.w3.org/2000/svg" viewBox="0 0 50 50">
  <defs>
    <style>
      .cls-1 {
        fill: #3e7ea9;
      }
    </style>
  </defs>
  <title>X</title>
  <path class="cls-1" d="M34.38,25,48.45,10.93a5.34,5.34,0,0,0,0-7.51L46.57,1.55a5.31,5.31,0,0,0-7.5,0L25,15.62,10.93,1.55a5.34,5.34,0,0,0-7.51,0L1.55,3.42a5.32,5.32,0,0,0,0,7.51L15.62,25,1.55,39.07a5.32,5.32,0,0,0,0,7.51l1.87,1.87a5.32,5.32,0,0,0,7.51,0L25,34.38,39.07,48.45a5.31,5.31,0,0,0,7.5,0l1.88-1.87a5.34,5.34,0,0,0,0-7.51Z" transform="translate(0 0)"/>
</svg>
