<svg id="Layer_1" data-name="Layer 1" xmlns="http://www.w3.org/2000/svg" viewBox="0 0 146.18 50">
  <defs>
    <style>
      .cls-1 {
        fill: #3e7ea9;
      }
    </style>
  </defs>
  <title>STAR</title>
  <g>
    <path class="cls-1" d="M32.4,22.67l-8.59,6.24L27.09,39a1.31,1.31,0,0,1-.48,1.48,1.3,1.3,0,0,1-.78.25,1.34,1.34,0,0,1-.78-.25l-8.58-6.24L7.89,40.48a1.35,1.35,0,0,1-1.56,0A1.33,1.33,0,0,1,5.85,39L9.13,28.91.55,22.67a1.33,1.33,0,0,1,.78-2.4h10.6l3.28-10.08a1.33,1.33,0,0,1,1.26-.92,1.31,1.31,0,0,1,1.26.92L21,20.27H31.62a1.33,1.33,0,0,1,.78,2.4Z" transform="translate(0 0)"/>
    <path class="cls-1" d="M99.93,21.3,86.29,31.21l5.21,16a2.12,2.12,0,0,1-.77,2.36,2.08,2.08,0,0,1-1.24.4,2.05,2.05,0,0,1-1.23-.4L74.62,39.69,61,49.6a2.13,2.13,0,0,1-2.48,0,2.1,2.1,0,0,1-.76-2.36l5.21-16L49.31,21.3a2.1,2.1,0,0,1,1.23-3.81H67.4l5.21-16a2.11,2.11,0,0,1,4,0l5.21,16H98.69a2.11,2.11,0,0,1,1.24,3.81Z" transform="translate(0 0)"/>
    <path class="cls-1" d="M145.63,22.67l-8.58,6.24L140.32,39a1.31,1.31,0,0,1-.48,1.48,1.33,1.33,0,0,1-1.55,0l-8.59-6.24-8.58,6.24a1.35,1.35,0,0,1-1.56,0,1.33,1.33,0,0,1-.48-1.48l3.28-10.09-8.58-6.24a1.33,1.33,0,0,1,.78-2.4h10.61l3.27-10.08a1.33,1.33,0,0,1,1.26-.92,1.31,1.31,0,0,1,1.26.92l3.28,10.08h10.61a1.33,1.33,0,0,1,.78,2.4Z" transform="translate(0 0)"/>
  </g>
</svg>
